<svg width="474" height="176" viewBox="0 0 474 176" fill="none" xmlns="http://www.w3.org/2000/svg">
<path d="M474 0V176H0V0H474ZM8 168H466V8H8V168Z" fill="#D9D9D9"/>
<path d="M394.282 121.08C389.482 121.08 385.222 120.09 381.502 118.11C377.842 116.07 374.962 113.28 372.862 109.74C370.762 106.2 369.712 102.12 369.712 97.5C369.712 92.88 370.732 88.8 372.772 85.26C374.872 81.72 377.752 78.96 381.412 76.98C385.132 74.94 389.362 73.92 394.102 73.92C398.902 73.92 403.132 74.94 406.792 76.98C410.512 78.96 413.392 81.72 415.432 85.26C417.532 88.8 418.582 92.88 418.582 97.5C418.582 102.12 417.532 106.2 415.432 109.74C413.392 113.28 410.542 116.07 406.882 118.11C403.222 120.09 399.022 121.08 394.282 121.08ZM394.282 106.14C395.782 106.14 397.102 105.78 398.242 105.06C399.382 104.28 400.282 103.26 400.942 102C401.602 100.68 401.932 99.18 401.932 97.5C401.932 95.82 401.602 94.35 400.942 93.09C400.282 91.77 399.352 90.75 398.152 90.03C397.012 89.25 395.662 88.86 394.102 88.86C392.602 88.86 391.252 89.25 390.052 90.03C388.912 90.75 388.012 91.77 387.352 93.09C386.692 94.35 386.362 95.82 386.362 97.5C386.362 99.18 386.692 100.68 387.352 102C388.012 103.26 388.942 104.28 390.142 105.06C391.342 105.78 392.722 106.14 394.282 106.14Z" fill="white"/>
<path d="M346.759 120V75H362.959V120H346.759ZM354.859 70.68C352.459 70.68 350.359 69.78 348.559 67.98C346.759 66.18 345.859 64.08 345.859 61.68C345.859 59.22 346.759 57.12 348.559 55.38C350.359 53.58 352.459 52.68 354.859 52.68C357.319 52.68 359.419 53.58 361.159 55.38C362.959 57.12 363.859 59.22 363.859 61.68C363.859 64.08 362.959 66.18 361.159 67.98C359.419 69.78 357.319 70.68 354.859 70.68Z" fill="white"/>
<path d="M328.927 121.35C326.407 121.35 324.217 120.45 322.357 118.65C320.557 116.79 319.657 114.6 319.657 112.08C319.657 109.56 320.557 107.4 322.357 105.6C324.217 103.74 326.407 102.81 328.927 102.81C331.447 102.81 333.607 103.74 335.407 105.6C337.267 107.4 338.197 109.56 338.197 112.08C338.197 114.6 337.267 116.79 335.407 118.65C333.607 120.45 331.447 121.35 328.927 121.35Z" fill="white"/>
<path d="M289.956 121.08C285.156 121.08 280.896 120.09 277.176 118.11C273.516 116.07 270.636 113.28 268.536 109.74C266.436 106.2 265.386 102.12 265.386 97.5C265.386 92.88 266.406 88.8 268.446 85.26C270.546 81.72 273.426 78.96 277.086 76.98C280.806 74.94 285.036 73.92 289.776 73.92C294.576 73.92 298.806 74.94 302.466 76.98C306.186 78.96 309.066 81.72 311.106 85.26C313.206 88.8 314.256 92.88 314.256 97.5C314.256 102.12 313.206 106.2 311.106 109.74C309.066 113.28 306.216 116.07 302.556 118.11C298.896 120.09 294.696 121.08 289.956 121.08ZM289.956 106.14C291.456 106.14 292.776 105.78 293.916 105.06C295.056 104.28 295.956 103.26 296.616 102C297.276 100.68 297.606 99.18 297.606 97.5C297.606 95.82 297.276 94.35 296.616 93.09C295.956 91.77 295.026 90.75 293.826 90.03C292.686 89.25 291.336 88.86 289.776 88.86C288.276 88.86 286.926 89.25 285.726 90.03C284.586 90.75 283.686 91.77 283.026 93.09C282.366 94.35 282.036 95.82 282.036 97.5C282.036 99.18 282.366 100.68 283.026 102C283.686 103.26 284.616 104.28 285.816 105.06C287.016 105.78 288.396 106.14 289.956 106.14Z" fill="white"/>
<path d="M213.154 138V75H228.454L229.354 83.28V138H213.154ZM241.414 121.08C237.694 121.08 234.604 120.15 232.144 118.29C229.744 116.43 227.944 113.73 226.744 110.19C225.604 106.65 225.034 102.42 225.034 97.5C225.034 92.52 225.604 88.29 226.744 84.81C227.944 81.27 229.744 78.57 232.144 76.71C234.604 74.85 237.694 73.92 241.414 73.92C245.674 73.92 249.304 74.85 252.304 76.71C255.364 78.57 257.704 81.27 259.324 84.81C260.944 88.29 261.754 92.52 261.754 97.5C261.754 102.42 260.944 106.65 259.324 110.19C257.704 113.73 255.364 116.43 252.304 118.29C249.304 120.15 245.674 121.08 241.414 121.08ZM237.094 106.14C238.594 106.14 239.914 105.78 241.054 105.06C242.194 104.28 243.094 103.26 243.754 102C244.474 100.68 244.834 99.18 244.834 97.5C244.834 95.82 244.504 94.35 243.844 93.09C243.184 91.77 242.284 90.75 241.144 90.03C240.004 89.31 238.684 88.95 237.184 88.95C235.684 88.95 234.334 89.31 233.134 90.03C231.934 90.75 231.004 91.77 230.344 93.09C229.684 94.35 229.354 95.82 229.354 97.5C229.354 99.18 229.684 100.68 230.344 102C231.004 103.26 231.904 104.28 233.044 105.06C234.244 105.78 235.594 106.14 237.094 106.14Z" fill="white"/>
<path d="M187.595 97.05C187.595 92.19 188.555 88.11 190.475 84.81C192.455 81.51 194.945 79.02 197.945 77.34C200.945 75.66 204.065 74.82 207.305 74.82V90.66C204.485 90.66 201.845 90.93 199.385 91.47C196.985 91.95 195.035 92.7 193.535 93.72C192.095 94.74 191.375 95.97 191.375 97.41L187.595 97.05ZM175.175 120V75H191.375V120H175.175Z" fill="white"/>
<path d="M145.024 121.08C140.224 121.08 135.964 120.09 132.244 118.11C128.584 116.07 125.704 113.28 123.604 109.74C121.504 106.2 120.454 102.12 120.454 97.5C120.454 92.88 121.474 88.8 123.514 85.26C125.614 81.72 128.494 78.96 132.154 76.98C135.874 74.94 140.104 73.92 144.844 73.92C149.644 73.92 153.874 74.94 157.534 76.98C161.254 78.96 164.134 81.72 166.174 85.26C168.274 88.8 169.324 92.88 169.324 97.5C169.324 102.12 168.274 106.2 166.174 109.74C164.134 113.28 161.284 116.07 157.624 118.11C153.964 120.09 149.764 121.08 145.024 121.08ZM145.024 106.14C146.524 106.14 147.844 105.78 148.984 105.06C150.124 104.28 151.024 103.26 151.684 102C152.344 100.68 152.674 99.18 152.674 97.5C152.674 95.82 152.344 94.35 151.684 93.09C151.024 91.77 150.094 90.75 148.894 90.03C147.754 89.25 146.404 88.86 144.844 88.86C143.344 88.86 141.994 89.25 140.794 90.03C139.654 90.75 138.754 91.77 138.094 93.09C137.434 94.35 137.104 95.82 137.104 97.5C137.104 99.18 137.434 100.68 138.094 102C138.754 103.26 139.684 104.28 140.884 105.06C142.084 105.78 143.464 106.14 145.024 106.14Z" fill="white"/>
<path d="M87.47 121.08C81.17 121.08 75.59 119.7 70.73 116.94C65.93 114.12 62.15 110.28 59.39 105.42C56.63 100.5 55.25 94.86 55.25 88.5C55.25 82.14 56.63 76.53 59.39 71.67C62.15 66.75 65.93 62.91 70.73 60.15C75.59 57.33 81.17 55.92 87.47 55.92C92.33 55.92 96.71 56.76 100.61 58.44C104.51 60.12 107.87 62.46 110.69 65.46C113.51 68.46 115.67 71.94 117.17 75.9L101.33 80.94C100.49 78.96 99.41 77.25 98.09 75.81C96.77 74.31 95.21 73.17 93.41 72.39C91.67 71.61 89.69 71.22 87.47 71.22C84.53 71.22 81.92 71.97 79.64 73.47C77.36 74.91 75.56 76.92 74.24 79.5C72.98 82.08 72.35 85.08 72.35 88.5C72.35 91.86 73.01 94.86 74.33 97.5C75.65 100.08 77.45 102.12 79.73 103.62C82.07 105.06 84.74 105.78 87.74 105.78C90.08 105.78 92.09 105.39 93.77 104.61C95.51 103.77 96.98 102.63 98.18 101.19C99.44 99.69 100.52 97.95 101.42 95.97L117.26 101.01C115.82 104.97 113.69 108.48 110.87 111.54C108.05 114.54 104.66 116.88 100.7 118.56C96.74 120.24 92.33 121.08 87.47 121.08Z" fill="white"/>
</svg>
